<svg width="300" height="341" viewBox="0 0 300 341" fill="none" xmlns="http://www.w3.org/2000/svg">
<rect y="20.9999" width="300" height="300" rx="30" fill="#202020"/>
<g filter="url(#filter0_d_110_2)">
<path d="M114.81 253C109.643 253 105.643 251.583 102.81 248.75C99.9762 245.75 98.5596 241.667 98.5596 236.5V92.25C98.5596 86.9167 99.8929 82.9167 102.56 80.25C105.393 77.4167 109.393 76 114.56 76C119.726 76 123.643 77.4167 126.31 80.25C129.143 82.9167 130.56 86.9167 130.56 92.25V225.75H203.06C207.56 225.75 210.976 226.917 213.31 229.25C215.81 231.583 217.06 234.917 217.06 239.25C217.06 243.583 215.81 247 213.31 249.5C210.976 251.833 207.56 253 203.06 253H114.81Z" fill="#DB4747"/>
</g>
<defs>
<filter id="filter0_d_110_2" x="94.5596" y="76" width="126.5" height="185" filterUnits="userSpaceOnUse" color-interpolation-filters="sRGB">
<feFlood flood-opacity="0" result="BackgroundImageFix"/>
<feColorMatrix in="SourceAlpha" type="matrix" values="0 0 0 0 0 0 0 0 0 0 0 0 0 0 0 0 0 0 127 0" result="hardAlpha"/>
<feOffset dy="4"/>
<feGaussianBlur stdDeviation="2"/>
<feComposite in2="hardAlpha" operator="out"/>
<feColorMatrix type="matrix" values="0 0 0 0 0 0 0 0 0 0 0 0 0 0 0 0 0 0 0.25 0"/>
<feBlend mode="normal" in2="BackgroundImageFix" result="effect1_dropShadow_110_2"/>
<feBlend mode="normal" in="SourceGraphic" in2="effect1_dropShadow_110_2" result="shape"/>
</filter>
</defs>
</svg>
